<svg width="35" height="37" viewBox="0 0 35 37" fill="none" xmlns="http://www.w3.org/2000/svg">
<path d="M24.3036 36V29.5582C24.366 28.7645 24.2588 27.9666 23.989 27.2175C23.7192 26.4685 23.2931 25.7854 22.7389 25.2138C27.9656 24.6312 33.4586 22.6504 33.4586 13.562C33.4582 11.238 32.5642 9.00311 30.9618 7.31993C31.7206 5.2867 31.6669 3.0393 30.812 1.0446C30.812 1.0446 28.8478 0.462008 24.3036 3.50812C20.4885 2.47414 16.4669 2.47414 12.6518 3.50812C8.1076 0.462008 6.14344 1.0446 6.14344 1.0446C5.28849 3.0393 5.23484 5.2867 5.99363 7.31993C4.37923 9.01559 3.48437 11.2707 3.49681 13.6119C3.49681 22.6337 8.9898 24.6145 14.2165 25.2637C13.6688 25.8296 13.2465 26.5045 12.9769 27.2444C12.7073 27.9843 12.5966 28.7727 12.6518 29.5582V36M12.6518 31.0064C4.32909 33.5032 4.41409 27.2444 1 26.0127C4.5 27 4 33.5 12.6518 31.0064Z" stroke="white" stroke-width="2" stroke-linecap="round" stroke-linejoin="round"/>
</svg>
