<svg width="37" height="37" viewBox="0 0 37 37" fill="none" xmlns="http://www.w3.org/2000/svg">
<path d="M27.25 1H9.75C4.91751 1 1 4.91751 1 9.75V27.25C1 32.0825 4.91751 36 9.75 36H27.25C32.0825 36 36 32.0825 36 27.25V9.75C36 4.91751 32.0825 1 27.25 1Z" stroke="white" stroke-width="2" stroke-linecap="round" stroke-linejoin="round"/>
<path d="M25.9243 16.9732C26.1402 18.4296 25.8915 19.9171 25.2134 21.224C24.5352 22.5309 23.4623 23.5907 22.1471 24.2526C20.832 24.9146 19.3416 25.145 17.8879 24.9111C16.4343 24.6772 15.0914 23.9909 14.0503 22.9497C13.0091 21.9086 12.3228 20.5657 12.0889 19.1121C11.855 17.6584 12.0854 16.168 12.7474 14.8529C13.4093 13.5377 14.4691 12.4648 15.776 11.7866C17.0829 11.1085 18.5704 10.8598 20.0268 11.0757C21.5124 11.296 22.8878 11.9883 23.9497 13.0503C25.0117 14.1122 25.704 15.4876 25.9243 16.9732Z" stroke="white" stroke-width="2" stroke-linecap="round" stroke-linejoin="round"/>
</svg>
