<svg width="12" height="13" viewBox="0 0 12 13" fill="none" xmlns="http://www.w3.org/2000/svg">
<path d="M10.5181 5.41934C10.5181 9.06016 5.75907 12.1809 5.75907 12.1809C5.75907 12.1809 1 9.06016 1 5.41934C1 4.17784 1.5014 2.9872 2.3939 2.10933C3.2864 1.23146 4.49689 0.738281 5.75907 0.738281C7.02126 0.738281 8.23175 1.23146 9.12425 2.10933C10.0167 2.9872 10.5181 4.17784 10.5181 5.41934Z" stroke="#3BB1EE" stroke-linecap="round" stroke-linejoin="round"/>
<path d="M5.75909 6.97959C6.63521 6.97959 7.34544 6.281 7.34544 5.41924C7.34544 4.55748 6.63521 3.85889 5.75909 3.85889C4.88297 3.85889 4.17273 4.55748 4.17273 5.41924C4.17273 6.281 4.88297 6.97959 5.75909 6.97959Z" stroke="#3BB1EE" stroke-linecap="round" stroke-linejoin="round"/>
</svg>
