<svg width="91" height="22" viewBox="0 0 91 22" fill="none" xmlns="http://www.w3.org/2000/svg">
<path d="M2.44958 21.5369C2.27173 21.5369 2.17471 21.4561 2.15854 21.2944L0 4.87492V4.82641C0 4.64855 0.0970131 4.55962 0.29104 4.55962H2.61936C2.79721 4.55962 2.89423 4.64047 2.9104 4.80215L4.17157 17.0016C4.18774 17.0662 4.21199 17.0986 4.24433 17.0986C4.27667 17.0986 4.30092 17.0662 4.31709 17.0016L8.51291 4.82641C8.59375 4.64855 8.70694 4.55962 8.85246 4.55962H11.1565C11.3505 4.55962 11.4152 4.66472 11.3505 4.87492L5.16595 21.2944C5.10128 21.4561 4.98001 21.5369 4.80215 21.5369H2.44958Z" fill="white"/>
<path d="M11.7729 21.5369C11.692 21.5369 11.6274 21.5127 11.5789 21.4642C11.5304 21.3995 11.5142 21.3267 11.5304 21.2459L13.5434 4.85066C13.5596 4.76982 13.5919 4.70514 13.6404 4.65664C13.7051 4.59196 13.7778 4.55962 13.8587 4.55962H16.0415C16.1223 4.55962 16.187 4.59196 16.2355 4.65664C16.284 4.70514 16.3002 4.76982 16.284 4.85066L14.271 21.2459C14.2548 21.3267 14.2144 21.3995 14.1497 21.4642C14.1012 21.5127 14.0365 21.5369 13.9557 21.5369H11.7729Z" fill="white"/>
<path d="M28.9279 4.55962C29.1058 4.55962 29.1947 4.65664 29.1947 4.85066L28.9522 6.71817C28.936 6.79901 28.8956 6.87177 28.8309 6.93645C28.7824 6.98495 28.7177 7.00921 28.6369 7.00921H24.9989C24.9342 7.00921 24.8857 7.04963 24.8534 7.13047L23.1314 21.2459C23.1152 21.3267 23.0748 21.3995 23.0101 21.4642C22.9616 21.5127 22.897 21.5369 22.8161 21.5369H20.6333C20.5525 21.5369 20.4878 21.5127 20.4393 21.4642C20.3908 21.3995 20.3746 21.3267 20.3908 21.2459L22.137 7.13047C22.137 7.04963 22.0966 7.00921 22.0157 7.00921H18.5233C18.4424 7.00921 18.3778 6.98495 18.3292 6.93645C18.2807 6.87177 18.2646 6.79901 18.2807 6.71817L18.499 4.85066C18.5152 4.76982 18.5475 4.70514 18.596 4.65664C18.6607 4.59196 18.7335 4.55962 18.8143 4.55962H28.9279Z" fill="white"/>
<path d="M33.4804 21.7552C32.0575 21.7552 30.9338 21.351 30.1092 20.5426C29.2845 19.7341 28.8722 18.6508 28.8722 17.2926C28.8722 17.1309 28.8884 16.856 28.9207 16.468L29.7454 9.62856C29.8747 8.59376 30.2062 7.68021 30.7397 6.88794C31.2733 6.0795 31.9605 5.45699 32.8013 5.02043C33.642 4.58388 34.5798 4.3656 35.6147 4.3656C37.0537 4.3656 38.1936 4.76982 39.0344 5.57826C39.8751 6.3867 40.2955 7.47002 40.2955 8.8282C40.2955 8.97372 40.2794 9.24051 40.247 9.62856L39.3982 16.468C39.2688 17.519 38.9374 18.4487 38.4038 19.2571C37.8702 20.0494 37.1749 20.6638 36.318 21.1004C35.4772 21.5369 34.5313 21.7552 33.4804 21.7552ZM33.7957 19.3299C34.5556 19.3299 35.1943 19.0793 35.7117 18.578C36.2452 18.0606 36.5605 17.3977 36.6575 16.5893L37.5307 9.5558C37.5468 9.45879 37.5549 9.31327 37.5549 9.11924C37.5549 8.40781 37.3528 7.8419 36.9486 7.42151C36.5444 7.00112 36.0027 6.79093 35.3236 6.79093C34.5798 6.79093 33.9493 7.04963 33.4319 7.56703C32.9145 8.06827 32.5992 8.73119 32.486 9.5558L31.6371 16.5893C31.6209 16.7024 31.6129 16.8641 31.6129 17.0743C31.6129 17.7534 31.8069 18.3032 32.1949 18.7236C32.583 19.1278 33.1166 19.3299 33.7957 19.3299ZM34.693 3.03166C34.5475 3.03166 34.4747 2.98316 34.4747 2.88614C34.4747 2.82147 34.499 2.75679 34.5475 2.69212L36.1967 0.194027C36.2291 0.129351 36.2776 0.0808448 36.3423 0.0485074C36.4231 0.0161691 36.4959 0 36.5605 0H38.331C38.4765 0 38.5493 0.0565913 38.5493 0.169774C38.5493 0.218281 38.525 0.282956 38.4765 0.363801L36.512 2.83764C36.415 2.96699 36.2937 3.03166 36.1482 3.03166H34.693Z" fill="white"/>
<path d="M49.3255 21.5369C49.1315 21.5369 49.0264 21.4561 49.0102 21.2944L47.3368 14.3337C47.3044 14.269 47.264 14.2367 47.2155 14.2367H45.2025C45.1216 14.2367 45.0812 14.2771 45.0812 14.358L44.2323 21.2459C44.2162 21.3267 44.1758 21.3995 44.1111 21.4642C44.0626 21.5127 43.9979 21.5369 43.9171 21.5369H41.7342C41.6534 21.5369 41.5887 21.5127 41.5402 21.4642C41.4917 21.3995 41.4756 21.3267 41.4917 21.2459L43.5047 4.85066C43.5209 4.76982 43.5532 4.70514 43.6018 4.65664C43.6664 4.59196 43.7392 4.55962 43.82 4.55962H49.2528C50.4978 4.55962 51.476 4.93959 52.1874 5.69953C52.8989 6.45946 53.2546 7.47002 53.2546 8.73119C53.2546 8.89288 53.2384 9.15158 53.2061 9.5073C53.0767 10.5583 52.7291 11.4718 52.1632 12.2479C51.5973 13.024 50.8858 13.5738 50.0289 13.8971C49.9319 13.9295 49.8995 13.9861 49.9319 14.0669L51.8236 21.1974L51.8479 21.2944C51.8479 21.4561 51.7589 21.5369 51.5811 21.5369H49.3255ZM46.0998 6.98495C46.0352 6.98495 45.9867 7.02538 45.9543 7.10622L45.3722 11.9326C45.3399 12.0135 45.3722 12.0539 45.4693 12.0539H47.9431C48.6707 12.0539 49.277 11.779 49.7621 11.2293C50.2472 10.6795 50.4897 9.96003 50.4897 9.07074C50.4897 8.42398 50.3118 7.91466 49.9561 7.54278C49.6166 7.1709 49.1558 6.98495 48.5737 6.98495H46.0998Z" fill="white"/>
<path d="M54.382 21.5369C54.3011 21.5369 54.2364 21.5127 54.1879 21.4642C54.1394 21.3995 54.1233 21.3267 54.1394 21.2459L56.1525 4.85066C56.1686 4.76982 56.201 4.70514 56.2495 4.65664C56.3141 4.59196 56.3869 4.55962 56.4678 4.55962H58.6506C58.7314 4.55962 58.7961 4.59196 58.8446 4.65664C58.8931 4.70514 58.9093 4.76982 58.8931 4.85066L56.8801 21.2459C56.8639 21.3267 56.8235 21.3995 56.7588 21.4642C56.7103 21.5127 56.6456 21.5369 56.5648 21.5369H54.382Z" fill="white"/>
<path d="M68.2871 21.5369C68.1092 21.5369 68.0122 21.4561 67.996 21.2944L67.6807 18.6993C67.6807 18.6346 67.6484 18.6023 67.5837 18.6023H62.7331C62.6684 18.6023 62.628 18.6346 62.6118 18.6993L61.7144 21.2944C61.6497 21.4561 61.5285 21.5369 61.3506 21.5369H59.1193C58.893 21.5369 58.8283 21.4318 58.9253 21.2216L65.2069 4.80215C65.2716 4.64047 65.3928 4.55962 65.5707 4.55962H68.2628C68.4407 4.55962 68.5377 4.64047 68.5539 4.80215L70.8094 21.2216V21.2944C70.8094 21.4561 70.7205 21.5369 70.5426 21.5369H68.2871ZM63.4849 16.2497C63.4687 16.2982 63.4687 16.3386 63.4849 16.371C63.5011 16.3872 63.5334 16.3952 63.5819 16.3952H67.2927C67.3897 16.3952 67.4382 16.3467 67.4382 16.2497L66.4681 8.29463C66.4681 8.24613 66.4519 8.22187 66.4196 8.22187C66.3872 8.22187 66.363 8.24613 66.3468 8.29463L63.4849 16.2497Z" fill="white"/>
<path d="M73.6014 20.8855H78.1652L81.5485 5.56506H77.7045L73.6014 20.8855Z" fill="url(#paint0_linear)"/>
<path fill-rule="evenodd" clip-rule="evenodd" d="M73.2213 21.2591C73.0975 21.1011 72.9489 20.8865 73.0399 20.4228L76.7528 5.33457C76.8596 4.89597 77.2524 4.58728 77.7039 4.58728H81.5479C81.8484 4.58728 82.1323 4.72529 82.3178 4.96163C82.5034 5.19797 82.5701 5.50645 82.4989 5.79835L78.8155 20.8865C78.7085 21.3248 78.3158 21.5385 77.8646 21.5385H73.991C73.8001 21.5385 73.3625 21.4392 73.2213 21.2591ZM77.8646 20.6543H73.991L77.7039 5.56614H81.5479L77.8646 20.6543Z" fill="url(#paint1_linear)"/>
<path d="M89.2082 5.12964L90.3205 13.958L85.988 20.8848H81.4242L85.988 13.7131L84.684 5.23753L89.2082 5.12964Z" fill="url(#paint2_linear)"/>
<path fill-rule="evenodd" clip-rule="evenodd" d="M88.998 4.58606C89.4465 4.58606 89.8249 4.91976 89.8809 5.36469L90.9933 14.193C91.0185 14.3931 90.975 14.5957 90.87 14.7678L86.7485 21.1679C86.587 21.4327 86.2991 21.5373 85.9889 21.5373H81.5281C81.2047 21.5373 80.9068 21.4188 80.7499 21.136C80.5931 20.8533 80.6019 20.5077 80.773 20.2334L85.3073 13.6972L84.3325 5.58206C84.3022 5.32938 84.3815 5.0758 84.5504 4.88541C84.7193 4.69502 84.9616 4.58606 85.2161 4.58606H88.998ZM86.2282 13.9022L81.5281 20.7043H85.9889L90.1104 14.3043L88.998 5.47594H85.2161L86.2282 13.9022Z" fill="url(#paint3_linear)"/>
<defs>
<linearGradient id="paint0_linear" x1="81.5485" y1="5.56506" x2="69.0243" y2="12.0617" gradientUnits="userSpaceOnUse">
<stop stop-color="#2DC7ED"/>
<stop offset="1" stop-color="#538BF0" stop-opacity="0"/>
</linearGradient>
<linearGradient id="paint1_linear" x1="61.6149" y1="16.3165" x2="68.2932" y2="26.385" gradientUnits="userSpaceOnUse">
<stop stop-color="#5AA8BB"/>
<stop offset="0.15625" stop-color="#3394AC"/>
<stop offset="1" stop-color="#3771DA"/>
</linearGradient>
<linearGradient id="paint2_linear" x1="90.3205" y1="5.12964" x2="76.8294" y2="12.7475" gradientUnits="userSpaceOnUse">
<stop stop-color="#2DC7ED"/>
<stop offset="1" stop-color="#538BF0" stop-opacity="0"/>
</linearGradient>
<linearGradient id="paint3_linear" x1="68.2265" y1="16.3153" x2="74.6675" y2="26.8905" gradientUnits="userSpaceOnUse">
<stop stop-color="#5AA8BB"/>
<stop offset="0.15625" stop-color="#3394AC"/>
<stop offset="1" stop-color="#3771DA"/>
</linearGradient>
</defs>
</svg>
