<svg width="45" height="37" viewBox="0 0 45 37" fill="none" xmlns="http://www.w3.org/2000/svg">
<path d="M43.1667 1.01927C41.3312 2.31394 39.299 3.30415 37.1483 3.95177C35.994 2.6245 34.4599 1.68377 32.7535 1.2568C31.0471 0.829831 29.2507 0.937232 27.6073 1.56448C25.9639 2.19172 24.5528 3.30854 23.5649 4.7639C22.5769 6.21925 22.0598 7.94292 22.0833 9.70177V11.6184C18.715 11.7058 15.3774 10.9587 12.3678 9.44388C9.35809 7.92901 6.76977 5.69332 4.83333 2.93594C4.83333 2.93594 -2.83333 20.1859 14.4167 27.8526C10.4693 30.532 5.76705 31.8755 1 31.6859C18.25 41.2693 39.3333 31.6859 39.3333 9.64427C39.3316 9.11039 39.2802 8.57783 39.18 8.05344C41.1362 6.1243 42.5166 3.68864 43.1667 1.01927V1.01927Z" stroke="white" stroke-width="2" stroke-linecap="round" stroke-linejoin="round"/>
</svg>
